<svg width="150" height="210" viewBox="0 0 150 210" fill="none" xmlns="http://www.w3.org/2000/svg">
<rect width="150" height="210" fill="#F09199"/>
<path d="M26.1785 110.568L24.4325 111.162H24.3785L17.7185 101.856V105.276C17.7185 107.85 17.7905 109.2 17.9165 109.902L19.1045 110.064V111H15.1085V110.082L16.1885 109.902C16.3325 108.876 16.3865 107.364 16.3865 105.186V100.47L15.1805 100.236V99.3H19.0685L19.1405 99.336L24.8465 107.418C24.8825 106.662 24.9005 105.78 24.9005 104.916V104.43C24.9005 102.324 24.7925 101.028 24.6845 100.398L23.4785 100.236V99.3H27.4205V100.218L26.3765 100.398C26.2505 101.37 26.1965 102.882 26.1965 104.43V110.532L26.1785 110.568ZM32.466 111.162C30.9 111.162 29.964 110.838 29.316 110.154C28.686 109.506 28.416 108.57 28.416 107.31C28.416 105.114 29.262 104.286 30.774 103.476C31.494 103.098 32.16 102.918 33.114 102.918C34.68 102.918 35.598 103.26 36.246 103.944C36.876 104.592 37.146 105.51 37.146 106.77C37.146 108.966 36.3 109.812 34.788 110.622C34.068 111 33.402 111.162 32.466 111.162ZM33.114 109.902C33.546 109.902 33.798 109.83 33.996 109.704C34.41 109.452 34.536 109.092 34.536 107.58V106.842C34.536 105.6 34.428 105.096 34.032 104.7C33.654 104.322 33.078 104.178 32.466 104.178C32.034 104.178 31.782 104.232 31.584 104.358C31.17 104.61 31.044 104.988 31.044 106.482V107.238C31.044 108.48 31.17 108.984 31.548 109.362C31.926 109.74 32.502 109.902 33.114 109.902ZM45.0012 110.046V111H41.1312V110.046L41.9232 109.92L45.7572 99.426L45.7932 99.39L48.5472 99.156L48.6012 99.174L52.5972 109.956L53.2812 110.046V111H48.3672V110.046L49.4832 109.956C49.4292 109.344 49.0512 107.976 48.5832 106.662L48.3672 106.05L47.3772 106.932C46.9272 106.896 46.4772 106.878 45.7572 106.878H44.3532C43.9572 108.156 43.7412 109.272 43.7232 109.92L45.0012 110.046ZM46.8912 105.654C47.5032 105.654 47.8812 105.618 48.1872 105.582L46.4592 100.812L44.7852 105.654H46.8912ZM58.2548 110.1V111H53.9528V110.1L54.7268 110.028C54.7808 109.65 54.7988 108.984 54.7988 107.652V106.59C54.7988 105.24 54.7808 104.52 54.7268 104.178L53.9168 104.07V103.278L57.1208 102.882L57.1568 102.9L57.1028 104.322C58.0208 103.458 58.6148 102.972 60.0548 102.972C62.1608 102.972 63.0788 103.764 63.0788 106.392V108.39C63.0788 108.912 63.0968 109.776 63.1148 109.974L63.8528 110.1V111H59.5868V110.1L60.3968 110.01C60.4868 109.686 60.5408 108.912 60.5408 107.778V106.302C60.5408 104.844 59.9648 104.52 58.7408 104.52C57.7868 104.52 57.3368 105.024 57.3368 106.014V107.868C57.3368 109.074 57.3728 109.704 57.4088 110.01L58.2548 110.1ZM66.5985 101.676C65.8785 101.676 65.4285 100.938 65.4285 100.488C65.4285 99.894 66.5445 99.336 67.2105 99.336C67.8945 99.336 68.1105 100.11 68.1105 100.56C68.1105 101.262 67.2825 101.676 66.5985 101.676ZM64.8345 111V110.1L65.6805 110.028C65.7345 109.668 65.7525 109.128 65.7525 107.706V106.41C65.7525 104.934 65.7165 104.34 65.6625 103.998L64.7805 103.944V103.08L68.3265 102.972L68.3625 102.99C68.3085 103.944 68.2905 104.88 68.2905 106.572V107.652C68.2905 109.164 68.3265 109.686 68.3625 110.028L69.2265 110.1V111H64.8345ZM74.4074 110.1V111H70.1774V110.1L70.9514 110.028C71.0054 109.65 71.0234 108.984 71.0234 107.652V106.572C71.0234 105.186 70.9874 104.466 70.9334 104.178L70.1234 104.088V103.26L73.2374 102.882L73.2734 102.9L73.3994 104.16C74.3354 103.368 75.0014 102.972 76.2614 102.972C77.3954 102.972 78.1154 103.278 78.7814 104.214C79.7174 103.386 80.3114 102.972 81.6434 102.972C83.7134 102.972 84.4694 103.818 84.4694 106.338V108.516C84.4694 109.038 84.4874 109.812 84.5054 110.01L85.2254 110.1V111H80.9954V110.1L81.8054 110.01C81.8774 109.83 81.9314 109.308 81.9314 108.138V106.5C81.9314 104.898 81.4274 104.52 80.3294 104.52C79.8074 104.52 79.4114 104.682 79.0874 104.97C79.0514 105.366 79.0154 105.96 79.0154 106.626V107.94C79.0154 109.092 79.0514 109.704 79.0874 110.028L79.8794 110.1V111H75.6134V110.1L76.4054 110.028C76.4594 109.704 76.4774 109.092 76.4774 107.832V106.356C76.4774 104.916 76.0634 104.52 74.8934 104.52C74.3894 104.52 73.9934 104.682 73.6334 104.97C73.5974 105.348 73.5614 105.942 73.5614 106.626V107.886C73.5614 109.092 73.5974 109.704 73.6334 110.028L74.4074 110.1ZM93.7147 110.154C92.9587 110.712 91.8607 111.162 90.5107 111.162C89.0527 111.162 88.0447 110.856 87.3427 110.154C86.6407 109.452 86.3887 108.57 86.3887 107.31C86.3887 105.114 87.1987 104.322 88.7287 103.494C89.4487 103.098 90.0787 102.918 91.0507 102.918C93.1207 102.918 94.1287 103.926 94.1287 105.528C94.1287 105.96 94.0927 106.41 94.0387 106.734L92.1667 107.598L88.9447 107.562C89.1067 109.182 90.0067 109.722 91.8787 109.722C92.5627 109.722 93.2647 109.578 93.8767 109.326L93.9307 109.362L93.7147 110.154ZM89.3947 104.358C89.0167 104.574 88.9087 105.024 88.9087 106.122V106.5L91.7167 106.446C91.7347 106.302 91.7527 106.032 91.7527 105.798C91.7527 104.7 91.2307 104.178 90.1687 104.178C89.8087 104.178 89.6107 104.232 89.3947 104.358ZM98.6406 111V110.046L99.6846 109.974C99.7386 109.578 99.7926 108.678 99.7926 106.338V104.268C99.7926 101.676 99.7386 100.776 99.6666 100.326L98.6406 100.254V99.3H105.607C109.009 99.3 110.629 100.704 110.629 104.646C110.629 107.832 109.621 108.912 107.461 110.136C106.327 110.784 105.139 111 103.555 111H98.6406ZM104.779 109.632C105.625 109.632 106.291 109.488 106.795 109.146C107.605 108.624 107.839 107.796 107.839 105.546V104.808C107.839 103.224 107.569 102.198 106.885 101.514C105.967 100.614 104.905 100.452 102.547 100.398C102.493 100.866 102.475 101.568 102.475 103.098V105.798C102.475 107.994 102.511 108.894 102.565 109.344C103.123 109.524 103.789 109.632 104.779 109.632ZM119.604 111L117.174 111.27H117.084C116.832 111.126 116.544 110.712 116.4 110.19C115.878 110.73 115.356 111.108 114.042 111.108C112.278 111.108 111.486 110.442 111.486 109.074C111.486 108.174 111.756 107.652 112.494 107.202C113.286 106.698 114.6 106.338 116.184 106.284V105.744C116.184 104.592 115.734 104.286 114.69 104.286C113.772 104.286 113.052 104.574 112.314 105.042H112.278V103.728C113.268 103.242 114.456 102.954 115.662 102.954C117.858 102.954 118.704 103.656 118.704 105.474C118.704 106.284 118.65 107.94 118.65 108.822C118.65 109.848 118.884 110.082 119.604 110.208V111ZM114.006 108.66C114.006 109.398 114.384 109.776 115.23 109.776C115.824 109.776 116.13 109.47 116.148 108.93L116.184 107.562C115.824 107.454 115.464 107.418 115.158 107.418C114.294 107.418 114.006 107.688 114.006 108.516V108.66ZM123.801 111.162C123.027 111.162 122.307 110.964 121.857 110.514C121.515 110.172 121.335 109.812 121.335 109.11V104.322H120.183V103.224H121.335V101.1L123.873 100.992V103.224H126.195L126.213 103.26L125.943 104.376L123.873 104.322V108.624C123.873 108.948 123.927 109.164 124.125 109.362C124.341 109.578 124.647 109.668 125.061 109.668C125.403 109.668 125.763 109.542 126.141 109.29L126.483 109.704C125.835 110.55 125.043 111.162 123.801 111.162ZM135.143 111L132.713 111.27H132.623C132.371 111.126 132.083 110.712 131.939 110.19C131.417 110.73 130.895 111.108 129.581 111.108C127.817 111.108 127.025 110.442 127.025 109.074C127.025 108.174 127.295 107.652 128.033 107.202C128.825 106.698 130.139 106.338 131.723 106.284V105.744C131.723 104.592 131.273 104.286 130.229 104.286C129.311 104.286 128.591 104.574 127.853 105.042H127.817V103.728C128.807 103.242 129.995 102.954 131.201 102.954C133.397 102.954 134.243 103.656 134.243 105.474C134.243 106.284 134.189 107.94 134.189 108.822C134.189 109.848 134.423 110.082 135.143 110.208V111ZM129.545 108.66C129.545 109.398 129.923 109.776 130.769 109.776C131.363 109.776 131.669 109.47 131.687 108.93L131.723 107.562C131.363 107.454 131.003 107.418 130.697 107.418C129.833 107.418 129.545 107.688 129.545 108.516V108.66Z" fill="white"/>
</svg>
