<svg width="112" height="105" viewBox="0 0 112 105" fill="none" xmlns="http://www.w3.org/2000/svg">
<mask id="path-1-outside-1_8_787" maskUnits="userSpaceOnUse" x="0" y="0" width="112" height="105" fill="black">
<rect fill="white" width="112" height="105"/>
<path fill-rule="evenodd" clip-rule="evenodd" d="M58.1523 25.0962C65.4886 12.8516 78.3138 4.09076 92.3758 3C95.591 17.3064 94.8704 32.4674 90.3735 46.4175C90.914 47.3126 91.4288 48.2247 91.9434 49.1365C93.122 51.2246 94.2996 53.3109 95.7826 55.1881C98.0105 58.0083 101.118 60.3668 104.684 60.6177C104.324 61.1146 103.962 61.6089 103.6 62.1033C103.238 62.5975 102.876 63.0917 102.516 63.5884C103.955 63.5182 105.813 62.1733 106.902 61.2099C107.481 65.8064 105.443 71.4066 102.246 74.7186C102.891 74.6031 103.538 74.4852 104.185 74.3673C104.832 74.2494 105.478 74.1314 106.123 74.016C103.607 77.1494 100.633 80.1637 97.0865 82.8602C97.4812 83.4348 97.8821 84.0157 98.2902 84.6041C100.178 87.334 100.438 91.0172 98.8996 93.998C97.8306 96.0654 96.342 97.892 94.5637 99.277C93.5547 100.06 92.196 100.692 90.6974 101.194C89.6287 101.551 88.5428 101.823 87.4472 102.013C84.5845 103.364 80.4292 103.184 76.2611 102.338C71.9879 101.471 65.1056 98.7236 60.0454 96.7034L60.045 96.7032L60.0446 96.7031L60.0445 96.703C58.9531 96.2673 57.9466 95.8654 57.0692 95.5236C42.9049 95.5236 29.8311 92.3437 21.2043 87.4514C15.7432 85.4274 10.6434 82.5762 6.64692 78.3115C7.94569 78.6427 9.35436 78.5223 10.5732 77.9502C6.15738 76.4147 2.96041 71.8382 3.00037 67.1212C4.08934 68.6065 5.87765 69.5499 7.70592 69.58C6.17737 68.5363 5.03844 66.9305 4.54891 65.134C9.1926 64.1318 12.8845 60.6375 15.5765 56.6109C11.3848 50.2043 9.29097 42.4562 8.655 34.7645C7.89611 25.5862 9.07337 16.3778 10.2417 7.2395L10.2435 7.22519C24.1452 7.68336 37.9546 14.5462 47.6426 25.3013C51.0771 24.7203 54.6214 24.6331 58.1523 25.0962Z"/>
</mask>
<path fill-rule="evenodd" clip-rule="evenodd" d="M58.1523 25.0962C65.4886 12.8516 78.3138 4.09076 92.3758 3C95.591 17.3064 94.8704 32.4674 90.3735 46.4175C90.914 47.3126 91.4288 48.2247 91.9434 49.1365C93.122 51.2246 94.2996 53.3109 95.7826 55.1881C98.0105 58.0083 101.118 60.3668 104.684 60.6177C104.324 61.1146 103.962 61.6089 103.6 62.1033C103.238 62.5975 102.876 63.0917 102.516 63.5884C103.955 63.5182 105.813 62.1733 106.902 61.2099C107.481 65.8064 105.443 71.4066 102.246 74.7186C102.891 74.6031 103.538 74.4852 104.185 74.3673C104.832 74.2494 105.478 74.1314 106.123 74.016C103.607 77.1494 100.633 80.1637 97.0865 82.8602C97.4812 83.4348 97.8821 84.0157 98.2902 84.6041C100.178 87.334 100.438 91.0172 98.8996 93.998C97.8306 96.0654 96.342 97.892 94.5637 99.277C93.5547 100.06 92.196 100.692 90.6974 101.194C89.6287 101.551 88.5428 101.823 87.4472 102.013C84.5845 103.364 80.4292 103.184 76.2611 102.338C71.9879 101.471 65.1056 98.7236 60.0454 96.7034L60.045 96.7032L60.0446 96.7031L60.0445 96.703C58.9531 96.2673 57.9466 95.8654 57.0692 95.5236C42.9049 95.5236 29.8311 92.3437 21.2043 87.4514C15.7432 85.4274 10.6434 82.5762 6.64692 78.3115C7.94569 78.6427 9.35436 78.5223 10.5732 77.9502C6.15738 76.4147 2.96041 71.8382 3.00037 67.1212C4.08934 68.6065 5.87765 69.5499 7.70592 69.58C6.17737 68.5363 5.03844 66.9305 4.54891 65.134C9.1926 64.1318 12.8845 60.6375 15.5765 56.6109C11.3848 50.2043 9.29097 42.4562 8.655 34.7645C7.89611 25.5862 9.07337 16.3778 10.2417 7.2395L10.2435 7.22519C24.1452 7.68336 37.9546 14.5462 47.6426 25.3013C51.0771 24.7203 54.6214 24.6331 58.1523 25.0962Z" fill="#FEFCF6"/>
<path d="M92.3758 3L94.3272 2.56146L93.9475 0.872082L92.2212 1.00599L92.3758 3ZM58.1523 25.0962L57.8922 27.0792L59.1934 27.2498L59.8679 26.1241L58.1523 25.0962ZM90.3735 46.4175L88.4699 45.8038L88.1903 46.6712L88.6614 47.4512L90.3735 46.4175ZM91.9434 49.1365L93.6851 48.1534L93.6851 48.1534L91.9434 49.1365ZM95.7826 55.1881L94.2132 56.4279L94.2132 56.4279L95.7826 55.1881ZM104.684 60.6177L106.304 61.7906L108.415 58.8752L104.825 58.6227L104.684 60.6177ZM103.6 62.1033L105.213 63.2853L105.213 63.2853L103.6 62.1033ZM102.516 63.5884L100.896 62.4156L98.4538 65.7892L102.614 65.5861L102.516 63.5884ZM106.902 61.2099L108.886 60.9597L108.412 57.2028L105.576 59.712L106.902 61.2099ZM102.246 74.7186L100.808 73.3295L96.5144 77.777L102.599 76.6872L102.246 74.7186ZM104.185 74.3673L103.826 72.3997L103.826 72.3997L104.185 74.3673ZM106.123 74.016L107.682 75.2681L111.024 71.1064L105.77 72.0474L106.123 74.016ZM97.0865 82.8602L95.876 81.2681L94.3588 82.4217L95.438 83.9926L97.0865 82.8602ZM98.2902 84.6041L99.9351 83.4664L99.9336 83.4643L98.2902 84.6041ZM98.8996 93.998L100.676 94.9166L100.677 94.9153L98.8996 93.998ZM94.5637 99.277L95.7897 100.857L95.7926 100.855L94.5637 99.277ZM90.6974 101.194L91.3313 103.091L91.3324 103.09L90.6974 101.194ZM87.4472 102.013L87.1061 100.042L86.8389 100.088L86.5937 100.204L87.4472 102.013ZM76.2611 102.338L76.6587 100.378L76.6587 100.378L76.2611 102.338ZM60.0454 96.7034L59.3026 98.5603L59.3038 98.5608L60.0454 96.7034ZM60.045 96.7032L59.2835 98.5526L59.2928 98.5564L59.3022 98.5602L60.045 96.7032ZM60.0446 96.7031L59.2323 98.5307L59.2575 98.5419L59.2831 98.5524L60.0446 96.7031ZM60.0445 96.703L60.8568 94.8754L60.8217 94.8598L60.7861 94.8456L60.0445 96.703ZM57.0692 95.5236L57.7953 93.66L57.4451 93.5236H57.0692V95.5236ZM21.2043 87.4514L22.191 85.7117L22.0506 85.6321L21.8994 85.576L21.2043 87.4514ZM6.64692 78.3115L7.14111 76.3735L0.503898 74.681L5.18755 79.6791L6.64692 78.3115ZM10.5732 77.9502L11.423 79.7607L15.8686 77.6741L11.2301 76.0612L10.5732 77.9502ZM3.00037 67.1212L4.61333 65.9386L1.05148 61.0803L1.00044 67.1042L3.00037 67.1212ZM7.70592 69.58L7.67298 71.5798L14.342 71.6896L8.83375 67.9284L7.70592 69.58ZM4.54891 65.134L4.127 63.179L2.06454 63.6241L2.61927 65.6598L4.54891 65.134ZM15.5765 56.6109L17.2391 57.7225L17.9743 56.6229L17.2501 55.516L15.5765 56.6109ZM8.655 34.7645L6.6618 34.9293L6.6618 34.9293L8.655 34.7645ZM10.2417 7.2395L8.25782 6.98585L8.25781 6.98588L10.2417 7.2395ZM10.2435 7.22519L10.3094 5.22628L8.49046 5.16633L8.25965 6.97154L10.2435 7.22519ZM47.6426 25.3013L46.1566 26.6398L46.8923 27.4566L47.9762 27.2732L47.6426 25.3013ZM92.2212 1.00599C77.4364 2.15281 64.0645 11.3371 56.4366 24.0683L59.8679 26.1241C66.9127 14.366 79.1912 6.02871 92.5305 4.99401L92.2212 1.00599ZM92.277 47.0311C96.8827 32.7437 97.6213 17.2194 94.3272 2.56146L90.4245 3.43854C93.5607 17.3934 92.8581 32.1912 88.4699 45.8038L92.277 47.0311ZM93.6851 48.1534C93.1729 47.2459 92.6438 46.3082 92.0856 45.3837L88.6614 47.4512C89.1842 48.3171 89.6847 49.2035 90.2017 50.1195L93.6851 48.1534ZM97.352 53.9484C95.9811 52.2131 94.8767 50.2645 93.6851 48.1534L90.2017 50.1195C91.3673 52.1846 92.618 54.4086 94.2132 56.4279L97.352 53.9484ZM104.825 58.6227C102.052 58.4276 99.4081 56.5511 97.352 53.9484L94.2132 56.4279C96.6129 59.4655 100.183 62.306 104.544 62.6128L104.825 58.6227ZM105.213 63.2853C105.575 62.7917 105.941 62.2928 106.304 61.7906L103.064 59.4449C102.708 59.9364 102.35 60.4261 101.987 60.9212L105.213 63.2853ZM104.136 64.7613C104.492 64.2699 104.851 63.7803 105.213 63.2853L101.987 60.9212C101.625 61.4147 101.26 61.9135 100.896 62.4156L104.136 64.7613ZM105.576 59.712C105.097 60.136 104.461 60.6314 103.816 61.0164C103.119 61.432 102.64 61.58 102.419 61.5908L102.614 65.5861C103.832 65.5266 105.001 64.9671 105.865 64.4518C106.78 63.906 107.617 63.2472 108.227 62.7078L105.576 59.712ZM103.685 76.1076C107.27 72.394 109.547 66.2025 108.886 60.9597L104.917 61.46C105.415 65.4104 103.617 70.4192 100.808 73.3295L103.685 76.1076ZM103.826 72.3997C103.179 72.5177 102.535 72.6351 101.894 72.7499L102.599 76.6872C103.247 76.5712 103.897 76.4527 104.543 76.3348L103.826 72.3997ZM105.77 72.0474C105.122 72.1634 104.472 72.2819 103.826 72.3997L104.543 76.3348C105.191 76.2168 105.835 76.0995 106.475 75.9847L105.77 72.0474ZM98.297 84.4523C101.987 81.6463 105.077 78.5139 107.682 75.2681L104.563 72.7639C102.138 75.7848 99.2785 78.6811 95.876 81.2681L98.297 84.4523ZM95.438 83.9926C95.8343 84.5696 96.2369 85.153 96.6468 85.744L99.9336 83.4643C99.5273 82.8785 99.1281 82.3 98.735 81.7278L95.438 83.9926ZM96.6453 85.7418C98.1167 87.869 98.319 90.7624 97.1224 93.0807L100.677 94.9153C102.557 91.2721 102.24 86.7989 99.935 83.4664L96.6453 85.7418ZM97.123 93.0794C96.1785 94.9061 94.8713 96.5025 93.3348 97.6991L95.7926 100.855C97.8128 99.2816 99.4827 97.2248 100.676 94.9166L97.123 93.0794ZM93.3378 97.6968C92.5779 98.2863 91.4545 98.8312 90.0623 99.2974L91.3324 103.09C92.9374 102.553 94.5314 101.833 95.7897 100.857L93.3378 97.6968ZM90.0634 99.2971C89.0918 99.6218 88.1038 99.8693 87.1061 100.042L87.7884 103.983C88.9819 103.777 90.1657 103.48 91.3313 103.091L90.0634 99.2971ZM75.8635 104.298C80.0983 105.157 84.8139 105.467 88.3008 103.821L86.5937 100.204C84.355 101.26 80.7601 101.21 76.6587 100.378L75.8635 104.298ZM59.3038 98.5608C64.2843 100.549 71.3695 103.387 75.8635 104.298L76.6587 100.378C72.6063 99.556 65.9269 96.898 60.7869 94.8459L59.3038 98.5608ZM59.3022 98.5602L59.3026 98.5603L60.7882 94.8464L60.7878 94.8463L59.3022 98.5602ZM59.2831 98.5524L59.2835 98.5526L60.8065 94.8539L60.8061 94.8537L59.2831 98.5524ZM59.2322 98.5306L59.2323 98.5307L60.8569 94.8754L60.8568 94.8754L59.2322 98.5306ZM56.3431 97.3871C57.2111 97.7253 58.2093 98.1238 59.3029 98.5605L60.7861 94.8456C59.6969 94.4108 58.682 94.0055 57.7953 93.66L56.3431 97.3871ZM20.2177 89.1911C29.2173 94.2949 42.6525 97.5236 57.0692 97.5236V93.5236C43.1573 93.5236 30.4449 90.3926 22.191 85.7117L20.2177 89.1911ZM5.18755 79.6791C9.46242 84.2409 14.8649 87.2348 20.5093 89.3267L21.8994 85.576C16.6215 83.62 11.8243 80.9116 8.10629 76.9439L5.18755 79.6791ZM9.72345 76.1397C8.93579 76.5094 8.00315 76.5934 7.14111 76.3735L6.15273 80.2495C7.88823 80.6921 9.77293 80.5352 11.423 79.7607L9.72345 76.1397ZM1.00044 67.1042C0.953319 72.6666 4.67897 78.018 9.91632 79.8393L11.2301 76.0612C7.6358 74.8113 4.9675 71.0098 5.0003 67.1381L1.00044 67.1042ZM7.73886 67.5803C6.55171 67.5608 5.34176 66.9322 4.61333 65.9386L1.38741 68.3037C2.83692 70.2808 5.20359 71.5391 7.67298 71.5798L7.73886 67.5803ZM2.61927 65.6598C3.23262 67.9107 4.65334 69.9174 6.57809 71.2317L8.83375 67.9284C7.70139 67.1551 6.84426 65.9503 6.47855 64.6082L2.61927 65.6598ZM13.9138 55.4994C11.3552 59.3265 8.04386 62.3337 4.127 63.179L4.97081 67.089C10.3413 65.93 14.4139 61.9486 17.2391 57.7225L13.9138 55.4994ZM6.6618 34.9293C7.31667 42.8496 9.47953 50.9452 13.9028 57.7059L17.2501 55.516C13.2901 49.4634 11.2653 42.0629 10.6482 34.5997L6.6618 34.9293ZM8.25781 6.98588C7.09421 16.0874 5.88266 25.506 6.6618 34.9293L10.6482 34.5997C9.90957 25.6664 11.0525 16.6681 12.2255 7.49313L8.25781 6.98588ZM8.25965 6.97154L8.25782 6.98585L12.2255 7.49316L12.2273 7.47885L8.25965 6.97154ZM49.1286 23.9627C39.1122 12.8431 24.8055 5.70403 10.3094 5.22628L10.1776 9.22411C23.485 9.66269 36.7969 16.2494 46.1566 26.6398L49.1286 23.9627ZM58.4123 23.1132C54.6783 22.6234 50.9338 22.7161 47.309 23.3293L47.9762 27.2732C51.2204 26.7245 54.5646 26.6428 57.8922 27.0792L58.4123 23.1132Z" fill="#F09199" mask="url(#path-1-outside-1_8_787)"/>
<path d="M55.7105 29.7464C62.3642 15.1137 76.5908 4.22441 92.3758 3C95.8425 18.4256 94.7336 34.8448 89.2488 49.6683C79.9076 41.5992 69.5574 34.7244 55.7105 29.7464Z" fill="#FEFCF6"/>
<path opacity="0.8" d="M75.5018 37.4845C79.6179 33.199 80.7268 26.9465 82.0756 21.1556C83.4243 15.3647 85.6022 9.12224 91.1869 6.09131C92.9952 19.8509 91.7364 34.022 87.5104 47.2397C83.8738 44.0582 80.2373 40.8667 75.5018 37.4845Z" fill="#F09199"/>
<path d="M16.8373 84.5239C24.9596 91.0374 40.2451 95.5236 57.0692 95.5236C62.0145 97.4505 71.066 101.284 76.2611 102.338C81.4562 103.392 86.6313 103.412 89.3087 100.722C65.5612 96.5071 41.5339 84.6644 16.8373 84.5239Z" fill="#F09199"/>
<path d="M27.9668 89.542C20.0542 87.5047 12.2616 84.3031 6.64692 78.3115C7.94569 78.6427 9.35436 78.5223 10.5732 77.9502C6.15738 76.4147 2.96041 71.8382 3.00037 67.1212C4.08934 68.6065 5.87765 69.5499 7.70592 69.58C6.17737 68.5363 5.03844 66.9305 4.54891 65.134C9.80393 63.9999 13.8401 59.6743 16.5875 54.9975C19.3349 50.3206 21.1632 45.1319 24.0804 40.5654C32.1128 27.96 48.7271 21.6773 63.8328 26.3341C74.6126 29.2647 84.2036 36.4406 90.1279 46.0151C92.0162 49.0761 93.5547 52.368 95.7826 55.1882C98.0105 58.0083 101.118 60.3668 104.684 60.6177C103.965 61.6113 103.236 62.5949 102.516 63.5884C103.955 63.5182 105.374 62.9461 106.462 61.9827C107.042 66.5792 105.443 71.4066 102.246 74.7186C103.535 74.4877 104.834 74.2469 106.123 74.016C94.254 88.7993 72.1749 100.933 27.9668 89.542Z" fill="#FEFCF6"/>
<path d="M90.048 72.4001C92.6655 76.3343 95.283 80.2685 98.2902 84.6041C100.178 87.334 100.438 91.0173 98.8996 93.998C97.8306 96.0655 96.342 97.8921 94.5637 99.277C93.5547 100.06 92.196 100.692 90.6974 101.194C85.5622 102.91 80.0275 102.659 74.9423 100.762C67.0797 97.8318 60.416 94.9213 51.8841 91.9908" fill="#FEFCF6"/>
<path d="M51.4345 30.0072C41.7936 16.5788 26.0785 7.74698 10.2435 7.2251C9.0746 16.3681 7.89572 25.5813 8.655 34.7644C9.41428 43.9475 12.2516 53.2109 18.2559 60.176C25.7288 51.9764 33.8911 44.4092 51.4345 30.0072Z" fill="#FEFCF6"/>
<path opacity="0.8" d="M18.0761 53.9335C11.3624 44.66 8.1355 25.802 12.1117 10.3262C15.9881 10.266 19.275 13.588 21.1931 17.2914C23.1013 20.9947 23.9505 25.1497 25.2993 29.0939C26.648 33.0381 28.6861 36.9924 32.1128 39.5315C29.2355 38.4476 25.8887 38.6885 23.1913 40.1739C24.7798 40.2642 26.3383 40.8262 27.6271 41.7796C23.9905 43.6363 21.2231 47.149 20.264 51.1334C21.1232 50.7119 21.9824 50.2803 22.8416 49.8588C21.8126 51.6553 20.1042 53.0704 18.0761 53.9335Z" fill="#F09199"/>
<path d="M83.6141 72.1291C84.0737 67.2816 85.3825 63.1969 87.2907 60.5975C89.1989 58.0082 91.6965 56.9343 94.334 57.5666C93.7146 58.5301 93.1052 59.5036 92.3359 60.3968C92.1361 64.4615 91.157 67.944 89.6184 70.0516C88.0699 72.1592 85.9819 72.8618 83.6141 72.1291Z" fill="#592624"/>
<mask id="mask0_8_787" style="mask-type:luminance" maskUnits="userSpaceOnUse" x="83" y="57" width="12" height="17">
<path d="M83.6141 72.1291C84.0737 67.2816 85.3825 63.1969 87.2907 60.5975C89.1989 58.0082 91.6965 56.9343 94.334 57.5666C93.7146 58.5301 93.1052 59.5036 92.3359 60.3968C92.1361 64.4615 92.3459 69.7606 90.8073 71.8682C89.2488 73.9758 85.9819 72.8618 83.6141 72.1291Z" fill="white"/>
</mask>
<g mask="url(#mask0_8_787)">
<path d="M85.2525 64.1603C85.4523 65.6256 85.8519 66.9403 86.3715 67.9841C87.1407 69.5497 88.1797 70.4831 89.1888 70.3326C90.8672 70.0817 91.8263 66.9102 91.3268 63.2571C91.137 61.8821 90.7673 60.6376 90.2977 59.624C89.5085 57.9479 88.4295 56.9343 87.3805 57.0848C85.7121 57.3357 84.753 60.5071 85.2525 64.1603Z" fill="#E89E35"/>
<path d="M87.5603 58.6907C88.5294 61.832 89.0189 65.435 88.929 68.7369C88.1298 65.5554 87.6202 62.1833 87.5603 58.6907Z" fill="#91401D"/>
<path d="M85.2525 64.1603C85.4523 65.6256 85.8519 66.9403 86.3715 67.9841C86.3615 65.9869 86.6312 64.1101 87.1707 62.675C87.88 60.7882 89.0289 59.6842 90.2977 59.624C89.5085 57.9479 88.4295 56.9343 87.3805 57.0848C85.7121 57.3357 84.753 60.5071 85.2525 64.1603Z" fill="#91401D"/>
</g>
<path d="M63.0236 73.2432C60.476 68.8875 56.3199 65.3648 51.3047 63.3375C46.2894 61.3002 40.455 60.7582 34.8702 61.802C36.5287 62.5748 38.1971 63.3576 40.1552 64.0401C41.8736 67.7233 45.1305 70.7442 49.1767 72.4002C53.2229 74.0562 58.0383 74.3372 63.0236 73.2432Z" fill="#592624"/>
<mask id="mask1_8_787" style="mask-type:luminance" maskUnits="userSpaceOnUse" x="34" y="61" width="30" height="14">
<path d="M63.0236 73.2432C60.476 68.8875 56.3199 65.3648 51.3047 63.3375C46.2894 61.3002 40.455 60.7582 34.8702 61.802C36.5287 62.5748 38.1971 63.3576 40.1552 64.0401C41.8736 67.7233 43.0925 72.621 47.1486 74.277C51.1948 75.9329 58.0383 74.3372 63.0236 73.2432Z" fill="white"/>
</mask>
<g mask="url(#mask1_8_787)">
<path d="M56.8894 66.2381C56.9094 67.613 56.4498 68.8876 55.6306 69.9314C54.4317 71.4971 52.4336 72.5408 50.1758 72.581C46.4093 72.6512 43.2923 69.9113 43.2423 66.479C43.2223 65.1943 43.6419 63.9799 44.3513 62.9763C45.5501 61.3103 47.6082 60.1762 49.966 60.1361C53.7224 60.0658 56.8295 62.8057 56.8894 66.2381Z" fill="#E89E35"/>
<path d="M50.0959 61.6313C48.957 64.6823 49.0169 68.0645 50.2657 71.0754C51.005 68.0144 51.075 64.8429 50.0959 61.6313Z" fill="#91401D"/>
<path d="M56.8894 66.238C56.9094 67.613 56.4499 68.8876 55.6306 69.9313C55.0312 68.1047 53.8323 66.4287 52.1939 65.2043C50.0459 63.5985 47.1686 62.7956 44.3413 62.9662C45.5402 61.3002 47.5982 60.1661 49.956 60.126C53.7224 60.0658 56.8295 62.8056 56.8894 66.238Z" fill="#91401D"/>
</g>
<path opacity="0.8" d="M81.5061 89.1104C81.3063 87.0228 84.5832 85.0056 88.8192 84.6041C93.0552 84.2027 96.6518 85.5576 96.8416 87.6451C97.0414 89.7326 91.4467 93.3657 91.4467 93.3657C91.4467 93.3657 81.6959 91.1879 81.5061 89.1104Z" fill="#592624"/>
<path d="M69.7272 66.6595C69.7972 59.1926 65.5612 51.8461 59.0773 48.1929C56.4998 46.7377 53.3827 45.6036 52.1938 42.8838C52.1039 47.0789 54.112 51.274 57.4289 53.8232C54.7614 53.5422 52.2338 52.0769 50.6553 49.8991C50.3356 53.0404 51.7043 56.3122 54.172 58.2793C56.3899 60.0557 59.2571 60.7382 61.9046 61.792C64.5421 62.8357 67.2296 64.5619 69.7272 66.6595Z" fill="#F09199"/>
<path d="M80.557 65.0737C79.1383 57.7473 79.8277 50.3105 82.3153 46.3662C83.3044 44.8006 84.6132 43.516 84.6831 40.7861C85.5023 44.901 85.3125 49.1162 84.1636 51.8059C85.4124 51.3843 86.3715 49.8087 86.7311 47.5907C87.4704 50.6617 87.4105 53.9335 86.5813 56.001C85.832 57.8677 84.5632 58.6907 83.4642 59.8649C82.3653 61.0392 81.3762 62.8858 80.557 65.0737Z" fill="#F09199"/>
</svg>
