<svg width="808" height="170" viewBox="0 0 808 170" fill="none" xmlns="http://www.w3.org/2000/svg">
<mask id="path-1-outside-1_5_5" maskUnits="userSpaceOnUse" x="-0.5" y="47" width="112" height="105" fill="black">
<rect fill="white" x="-0.5" y="47" width="112" height="105"/>
<path fill-rule="evenodd" clip-rule="evenodd" d="M57.6523 72.0962C64.9886 59.8516 77.8138 51.0908 91.8758 50C95.091 64.3064 94.3704 79.4674 89.8735 93.4175C90.414 94.3126 90.9288 95.2247 91.4434 96.1365C92.622 98.2246 93.7996 100.311 95.2826 102.188C97.5105 105.008 100.618 107.367 104.184 107.618C103.824 108.115 103.462 108.609 103.1 109.103C102.738 109.597 102.376 110.092 102.016 110.588C103.455 110.518 105.313 109.173 106.402 108.21C106.981 112.806 104.943 118.407 101.746 121.719C102.391 121.603 103.038 121.485 103.685 121.367C104.332 121.249 104.978 121.131 105.623 121.016C103.107 124.149 100.133 127.164 96.5865 129.86C96.9812 130.435 97.3821 131.016 97.7902 131.604C99.6784 134.334 99.9382 138.017 98.3996 140.998C97.3306 143.065 95.842 144.892 94.0637 146.277C93.0547 147.06 91.696 147.692 90.1974 148.194C89.1287 148.551 88.0428 148.823 86.9472 149.013C84.0845 150.364 79.9292 150.184 75.7611 149.338C71.4879 148.471 64.6056 145.724 59.5454 143.703L59.545 143.703L59.5446 143.703L59.5445 143.703C58.4531 143.267 57.4466 142.865 56.5692 142.524C42.4049 142.524 29.3311 139.344 20.7043 134.451C15.2432 132.427 10.1434 129.576 6.14692 125.312C7.44569 125.643 8.85436 125.522 10.0732 124.95C5.65738 123.415 2.46041 118.838 2.50037 114.121C3.58934 115.607 5.37765 116.55 7.20592 116.58C5.67737 115.536 4.53844 113.93 4.04891 112.134C8.6926 111.132 12.3845 107.638 15.0765 103.611C10.8848 97.2043 8.79097 89.4562 8.155 81.7645C7.39611 72.5862 8.57337 63.3778 9.74167 54.2395L9.7435 54.2252C23.6452 54.6834 37.4546 61.5462 47.1426 72.3013C50.5771 71.7203 54.1214 71.6331 57.6523 72.0962Z"/>
</mask>
<path fill-rule="evenodd" clip-rule="evenodd" d="M57.6523 72.0962C64.9886 59.8516 77.8138 51.0908 91.8758 50C95.091 64.3064 94.3704 79.4674 89.8735 93.4175C90.414 94.3126 90.9288 95.2247 91.4434 96.1365C92.622 98.2246 93.7996 100.311 95.2826 102.188C97.5105 105.008 100.618 107.367 104.184 107.618C103.824 108.115 103.462 108.609 103.1 109.103C102.738 109.597 102.376 110.092 102.016 110.588C103.455 110.518 105.313 109.173 106.402 108.21C106.981 112.806 104.943 118.407 101.746 121.719C102.391 121.603 103.038 121.485 103.685 121.367C104.332 121.249 104.978 121.131 105.623 121.016C103.107 124.149 100.133 127.164 96.5865 129.86C96.9812 130.435 97.3821 131.016 97.7902 131.604C99.6784 134.334 99.9382 138.017 98.3996 140.998C97.3306 143.065 95.842 144.892 94.0637 146.277C93.0547 147.06 91.696 147.692 90.1974 148.194C89.1287 148.551 88.0428 148.823 86.9472 149.013C84.0845 150.364 79.9292 150.184 75.7611 149.338C71.4879 148.471 64.6056 145.724 59.5454 143.703L59.545 143.703L59.5446 143.703L59.5445 143.703C58.4531 143.267 57.4466 142.865 56.5692 142.524C42.4049 142.524 29.3311 139.344 20.7043 134.451C15.2432 132.427 10.1434 129.576 6.14692 125.312C7.44569 125.643 8.85436 125.522 10.0732 124.95C5.65738 123.415 2.46041 118.838 2.50037 114.121C3.58934 115.607 5.37765 116.55 7.20592 116.58C5.67737 115.536 4.53844 113.93 4.04891 112.134C8.6926 111.132 12.3845 107.638 15.0765 103.611C10.8848 97.2043 8.79097 89.4562 8.155 81.7645C7.39611 72.5862 8.57337 63.3778 9.74167 54.2395L9.7435 54.2252C23.6452 54.6834 37.4546 61.5462 47.1426 72.3013C50.5771 71.7203 54.1214 71.6331 57.6523 72.0962Z" fill="#FEFCF6"/>
<path d="M91.8758 50L93.8272 49.5615L93.4475 47.8721L91.7212 48.006L91.8758 50ZM57.6523 72.0962L57.3922 74.0792L58.6934 74.2498L59.3679 73.1241L57.6523 72.0962ZM89.8735 93.4175L87.9699 92.8038L87.6903 93.6712L88.1614 94.4512L89.8735 93.4175ZM91.4434 96.1365L93.1851 95.1534L93.1851 95.1534L91.4434 96.1365ZM95.2826 102.188L93.7132 103.428L93.7132 103.428L95.2826 102.188ZM104.184 107.618L105.804 108.791L107.915 105.875L104.325 105.623L104.184 107.618ZM103.1 109.103L104.713 110.285L104.713 110.285L103.1 109.103ZM102.016 110.588L100.396 109.416L97.9538 112.789L102.114 112.586L102.016 110.588ZM106.402 108.21L108.386 107.96L107.912 104.203L105.076 106.712L106.402 108.21ZM101.746 121.719L100.308 120.33L96.0144 124.777L102.099 123.687L101.746 121.719ZM103.685 121.367L103.326 119.4L103.326 119.4L103.685 121.367ZM105.623 121.016L107.182 122.268L110.524 118.106L105.27 119.047L105.623 121.016ZM96.5865 129.86L95.376 128.268L93.8588 129.422L94.938 130.993L96.5865 129.86ZM97.7902 131.604L99.4351 130.466L99.4336 130.464L97.7902 131.604ZM98.3996 140.998L100.176 141.917L100.177 141.915L98.3996 140.998ZM94.0637 146.277L95.2897 147.857L95.2926 147.855L94.0637 146.277ZM90.1974 148.194L90.8313 150.091L90.8324 150.09L90.1974 148.194ZM86.9472 149.013L86.6061 147.042L86.3389 147.088L86.0937 147.204L86.9472 149.013ZM75.7611 149.338L76.1587 147.378L76.1587 147.378L75.7611 149.338ZM59.5454 143.703L58.8026 145.56L58.8038 145.561L59.5454 143.703ZM59.545 143.703L58.7835 145.553L58.7928 145.556L58.8022 145.56L59.545 143.703ZM59.5446 143.703L58.7323 145.531L58.7575 145.542L58.7831 145.552L59.5446 143.703ZM59.5445 143.703L60.3568 141.875L60.3217 141.86L60.2861 141.846L59.5445 143.703ZM56.5692 142.524L57.2953 140.66L56.9451 140.524H56.5692V142.524ZM20.7043 134.451L21.691 132.712L21.5506 132.632L21.3994 132.576L20.7043 134.451ZM6.14692 125.312L6.64111 123.374L0.00389818 121.681L4.68755 126.679L6.14692 125.312ZM10.0732 124.95L10.923 126.761L15.3686 124.674L10.7301 123.061L10.0732 124.95ZM2.50037 114.121L4.11333 112.939L0.551477 108.08L0.500442 114.104L2.50037 114.121ZM7.20592 116.58L7.17298 118.58L13.842 118.69L8.33375 114.928L7.20592 116.58ZM4.04891 112.134L3.627 110.179L1.56454 110.624L2.11927 112.66L4.04891 112.134ZM15.0765 103.611L16.7391 104.722L17.4743 103.623L16.7501 102.516L15.0765 103.611ZM8.155 81.7645L6.1618 81.9293L6.1618 81.9293L8.155 81.7645ZM9.74167 54.2395L7.75782 53.9858L7.75781 53.9859L9.74167 54.2395ZM9.7435 54.2252L9.80938 52.2263L7.99046 52.1663L7.75965 53.9715L9.7435 54.2252ZM47.1426 72.3013L45.6566 73.6398L46.3923 74.4566L47.4762 74.2732L47.1426 72.3013ZM91.7212 48.006C76.9364 49.1528 63.5645 58.3371 55.9366 71.0683L59.3679 73.1241C66.4127 61.366 78.6912 53.0287 92.0305 51.994L91.7212 48.006ZM91.777 94.0311C96.3827 79.7437 97.1213 64.2194 93.8272 49.5615L89.9245 50.4385C93.0607 64.3934 92.3581 79.1912 87.9699 92.8038L91.777 94.0311ZM93.1851 95.1534C92.6729 94.2459 92.1438 93.3082 91.5856 92.3837L88.1614 94.4512C88.6842 95.3171 89.1847 96.2035 89.7017 97.1195L93.1851 95.1534ZM96.852 100.948C95.4811 99.2131 94.3767 97.2645 93.1851 95.1534L89.7017 97.1195C90.8673 99.1846 92.118 101.409 93.7132 103.428L96.852 100.948ZM104.325 105.623C101.552 105.428 98.9081 103.551 96.852 100.948L93.7132 103.428C96.1129 106.466 99.6831 109.306 104.044 109.613L104.325 105.623ZM104.713 110.285C105.075 109.792 105.441 109.293 105.804 108.791L102.564 106.445C102.208 106.936 101.85 107.426 101.487 107.921L104.713 110.285ZM103.636 111.761C103.992 111.27 104.351 110.78 104.713 110.285L101.487 107.921C101.125 108.415 100.76 108.913 100.396 109.416L103.636 111.761ZM105.076 106.712C104.597 107.136 103.961 107.631 103.316 108.016C102.619 108.432 102.14 108.58 101.919 108.591L102.114 112.586C103.332 112.527 104.501 111.967 105.365 111.452C106.28 110.906 107.117 110.247 107.727 109.708L105.076 106.712ZM103.185 123.108C106.77 119.394 109.047 113.202 108.386 107.96L104.417 108.46C104.915 112.41 103.117 117.419 100.308 120.33L103.185 123.108ZM103.326 119.4C102.679 119.518 102.035 119.635 101.394 119.75L102.099 123.687C102.747 123.571 103.397 123.453 104.043 123.335L103.326 119.4ZM105.27 119.047C104.622 119.163 103.972 119.282 103.326 119.4L104.043 123.335C104.691 123.217 105.335 123.099 105.975 122.985L105.27 119.047ZM97.797 131.452C101.487 128.646 104.577 125.514 107.182 122.268L104.063 119.764C101.638 122.785 98.7785 125.681 95.376 128.268L97.797 131.452ZM94.938 130.993C95.3343 131.57 95.7369 132.153 96.1468 132.744L99.4336 130.464C99.0273 129.878 98.6281 129.3 98.235 128.728L94.938 130.993ZM96.1453 132.742C97.6167 134.869 97.819 137.762 96.6224 140.081L100.177 141.915C102.057 138.272 101.74 133.799 99.435 130.466L96.1453 132.742ZM96.623 140.079C95.6785 141.906 94.3713 143.502 92.8348 144.699L95.2926 147.855C97.3128 146.282 98.9827 144.225 100.176 141.917L96.623 140.079ZM92.8378 144.697C92.0779 145.286 90.9545 145.831 89.5623 146.297L90.8324 150.09C92.4374 149.553 94.0314 148.833 95.2897 147.857L92.8378 144.697ZM89.5634 146.297C88.5918 146.622 87.6038 146.869 86.6061 147.042L87.2884 150.983C88.4819 150.777 89.6657 150.48 90.8313 150.091L89.5634 146.297ZM75.3635 151.298C79.5983 152.157 84.3139 152.467 87.8008 150.821L86.0937 147.204C83.855 148.26 80.2601 148.21 76.1587 147.378L75.3635 151.298ZM58.8038 145.561C63.7843 147.549 70.8695 150.387 75.3635 151.298L76.1587 147.378C72.1063 146.556 65.4269 143.898 60.2869 141.846L58.8038 145.561ZM58.8022 145.56L58.8026 145.56L60.2882 141.846L60.2878 141.846L58.8022 145.56ZM58.7831 145.552L58.7835 145.553L60.3065 141.854L60.3061 141.854L58.7831 145.552ZM58.7322 145.531L58.7323 145.531L60.3569 141.875L60.3568 141.875L58.7322 145.531ZM55.8431 144.387C56.7111 144.725 57.7093 145.124 58.8029 145.56L60.2861 141.846C59.1969 141.411 58.182 141.006 57.2953 140.66L55.8431 144.387ZM19.7177 136.191C28.7173 141.295 42.1525 144.524 56.5692 144.524V140.524C42.6573 140.524 29.9449 137.393 21.691 132.712L19.7177 136.191ZM4.68755 126.679C8.96242 131.241 14.3649 134.235 20.0093 136.327L21.3994 132.576C16.1215 130.62 11.3243 127.912 7.60629 123.944L4.68755 126.679ZM9.22345 123.14C8.43579 123.509 7.50315 123.593 6.64111 123.374L5.65273 127.249C7.38823 127.692 9.27293 127.535 10.923 126.761L9.22345 123.14ZM0.500442 114.104C0.453319 119.667 4.17897 125.018 9.41632 126.839L10.7301 123.061C7.1358 121.811 4.4675 118.01 4.5003 114.138L0.500442 114.104ZM7.23886 114.58C6.05171 114.561 4.84176 113.932 4.11333 112.939L0.887411 115.304C2.33692 117.281 4.70359 118.539 7.17298 118.58L7.23886 114.58ZM2.11927 112.66C2.73262 114.911 4.15334 116.917 6.07809 118.232L8.33375 114.928C7.20139 114.155 6.34426 112.95 5.97855 111.608L2.11927 112.66ZM13.4138 102.499C10.8552 106.327 7.54386 109.334 3.627 110.179L4.47081 114.089C9.84134 112.93 13.9139 108.949 16.7391 104.722L13.4138 102.499ZM6.1618 81.9293C6.81667 89.8496 8.97953 97.9452 13.4028 104.706L16.7501 102.516C12.7901 96.4634 10.7653 89.0629 10.1482 81.5997L6.1618 81.9293ZM7.75781 53.9859C6.59421 63.0874 5.38266 72.506 6.1618 81.9293L10.1482 81.5997C9.40957 72.6664 10.5525 63.6681 11.7255 54.4931L7.75781 53.9859ZM7.75965 53.9715L7.75782 53.9858L11.7255 54.4932L11.7273 54.4789L7.75965 53.9715ZM48.6286 70.9627C38.6122 59.8431 24.3055 52.704 9.80938 52.2263L9.67762 56.2241C22.985 56.6627 36.2969 63.2494 45.6566 73.6398L48.6286 70.9627ZM57.9123 70.1132C54.1783 69.6234 50.4338 69.7161 46.809 70.3293L47.4762 74.2732C50.7204 73.7245 54.0646 73.6428 57.3922 74.0792L57.9123 70.1132Z" fill="#F09199" mask="url(#path-1-outside-1_5_5)"/>
<path d="M55.2104 76.7464C61.8642 62.1137 76.0907 51.2244 91.8758 50C95.3425 65.4256 94.2335 81.8448 88.7487 96.6683C79.4076 88.5992 69.0573 81.7244 55.2104 76.7464Z" fill="#FEFCF6"/>
<path opacity="0.8" d="M75.0017 84.4844C79.1178 80.199 80.2268 73.9464 81.5755 68.1556C82.9242 62.3647 85.1021 56.1222 90.6869 53.0912C92.4952 66.8509 91.2363 81.0219 87.0103 94.2396C83.3738 91.0581 79.7372 87.8666 75.0017 84.4844Z" fill="#F09199"/>
<path d="M16.3373 131.524C24.4596 138.037 39.7451 142.524 56.5692 142.524C61.5145 144.451 70.566 148.284 75.7611 149.338C80.9562 150.392 86.1313 150.412 88.8087 147.722C65.0612 143.507 41.0339 131.664 16.3373 131.524Z" fill="#F09199"/>
<path d="M27.4668 136.542C19.5542 134.505 11.7616 131.303 6.14692 125.312C7.44569 125.643 8.85436 125.522 10.0732 124.95C5.65738 123.415 2.46041 118.838 2.50037 114.121C3.58934 115.607 5.37765 116.55 7.20592 116.58C5.67737 115.536 4.53844 113.93 4.04891 112.134C9.30393 111 13.3401 106.674 16.0875 101.997C18.8349 97.3206 20.6632 92.1319 23.5804 87.5654C31.6128 74.96 48.2271 68.6773 63.3328 73.3341C74.1126 76.2647 83.7036 83.4406 89.6279 93.0151C91.5162 96.0761 93.0547 99.368 95.2826 102.188C97.5105 105.008 100.618 107.367 104.184 107.618C103.465 108.611 102.736 109.595 102.016 110.588C103.455 110.518 104.874 109.946 105.962 108.983C106.542 113.579 104.943 118.407 101.746 121.719C103.035 121.488 104.334 121.247 105.623 121.016C93.754 135.799 71.6749 147.933 27.4668 136.542Z" fill="#FEFCF6"/>
<path d="M89.5479 119.4C92.1654 123.334 94.783 127.269 97.7901 131.604C99.6783 134.334 99.9381 138.017 98.3996 140.998C97.3306 143.065 95.842 144.892 94.0637 146.277C93.0546 147.06 91.6959 147.692 90.1973 148.194C85.0622 149.91 79.5274 149.659 74.4422 147.762C66.5797 144.832 59.916 141.921 51.384 138.991" fill="#FEFCF6"/>
<path d="M50.9345 77.0074C41.2936 63.5789 25.5785 54.7471 9.7435 54.2252C8.5746 63.3682 7.39572 72.5814 8.155 81.7645C8.91428 90.9476 11.7516 100.211 17.7559 107.176C25.2288 98.9766 33.3911 91.4093 50.9345 77.0074Z" fill="#FEFCF6"/>
<path opacity="0.8" d="M17.5762 100.934C10.8625 91.6602 7.63556 72.8022 11.6118 57.3264C15.4881 57.2662 18.775 60.5882 20.6932 64.2915C22.6014 67.9949 23.4506 72.1499 24.7993 76.0941C26.148 80.0383 28.1861 83.9926 31.6129 86.5317C28.7356 85.4478 25.3888 85.6887 22.6913 87.174C24.2798 87.2644 25.8383 87.8264 27.1271 88.7798C23.4906 90.6365 20.7232 94.1492 19.7641 98.1336C20.6233 97.712 21.4825 97.2805 22.3416 96.859C21.3126 98.6554 19.6042 100.071 17.5762 100.934Z" fill="#F09199"/>
<path d="M83.1141 119.129C83.5737 114.282 84.8825 110.197 86.7907 107.598C88.6989 105.008 91.1965 103.934 93.834 104.567C93.2146 105.53 92.6052 106.504 91.8359 107.397C91.6361 111.462 90.657 114.944 89.1184 117.052C87.5699 119.159 85.4819 119.862 83.1141 119.129Z" fill="#592624"/>
<mask id="mask0_5_5" style="mask-type:luminance" maskUnits="userSpaceOnUse" x="83" y="104" width="11" height="17">
<path d="M83.1141 119.129C83.5737 114.282 84.8825 110.197 86.7907 107.598C88.6989 105.008 91.1965 103.934 93.834 104.567C93.2146 105.53 92.6052 106.504 91.8359 107.397C91.6361 111.462 91.8459 116.761 90.3073 118.868C88.7488 120.976 85.4819 119.862 83.1141 119.129Z" fill="white"/>
</mask>
<g mask="url(#mask0_5_5)">
<path d="M84.7525 111.16C84.9523 112.626 85.3519 113.941 85.8714 114.984C86.6407 116.55 87.6797 117.483 88.6887 117.333C90.3671 117.082 91.3262 113.91 90.8267 110.257C90.6369 108.882 90.2672 107.638 89.7977 106.624C89.0084 104.948 87.9294 103.934 86.8804 104.085C85.212 104.336 84.2529 107.507 84.7525 111.16Z" fill="#E89E35"/>
<path d="M87.0603 105.691C88.0294 108.832 88.5189 112.435 88.429 115.737C87.6298 112.556 87.1202 109.184 87.0603 105.691Z" fill="#91401D"/>
<path d="M84.7525 111.16C84.9523 112.626 85.3519 113.941 85.8714 114.984C85.8614 112.987 86.1311 111.11 86.6706 109.675C87.38 107.788 88.5289 106.684 89.7977 106.624C89.0084 104.948 87.9294 103.934 86.8804 104.085C85.212 104.336 84.2529 107.507 84.7525 111.16Z" fill="#91401D"/>
</g>
<path d="M62.5236 120.243C59.976 115.887 55.8199 112.365 50.8047 110.337C45.7894 108.3 39.955 107.758 34.3702 108.802C36.0287 109.575 37.6971 110.358 39.6552 111.04C41.3736 114.723 44.6305 117.744 48.6767 119.4C52.7229 121.056 57.5383 121.337 62.5236 120.243Z" fill="#592624"/>
<mask id="mask1_5_5" style="mask-type:luminance" maskUnits="userSpaceOnUse" x="34" y="108" width="29" height="14">
<path d="M62.5236 120.243C59.976 115.887 55.8199 112.365 50.8047 110.337C45.7894 108.3 39.955 107.758 34.3702 108.802C36.0287 109.575 37.6971 110.358 39.6552 111.04C41.3736 114.723 42.5925 119.621 46.6486 121.277C50.6948 122.933 57.5383 121.337 62.5236 120.243Z" fill="white"/>
</mask>
<g mask="url(#mask1_5_5)">
<path d="M56.3895 113.238C56.4095 114.613 55.9499 115.887 55.1307 116.931C53.9318 118.497 51.9337 119.541 49.6758 119.581C45.9094 119.651 42.7923 116.911 42.7424 113.479C42.7224 112.194 43.142 110.98 43.8513 109.976C45.0502 108.31 47.1083 107.176 49.466 107.136C53.2225 107.066 56.3295 109.805 56.3895 113.238Z" fill="#E89E35"/>
<path d="M49.596 108.631C48.4571 111.682 48.517 115.064 49.7658 118.075C50.5051 115.014 50.5751 111.843 49.596 108.631Z" fill="#91401D"/>
<path d="M56.3896 113.238C56.4095 114.613 55.95 115.887 55.1307 116.931C54.5313 115.105 53.3325 113.429 51.694 112.204C49.546 110.598 46.6688 109.795 43.8414 109.966C45.0403 108.3 47.0983 107.166 49.4561 107.126C53.2226 107.066 56.3296 109.805 56.3896 113.238Z" fill="#91401D"/>
</g>
<path opacity="0.8" d="M81.0061 136.11C80.8063 134.023 84.0832 132.006 88.3192 131.604C92.5552 131.203 96.1518 132.558 96.3416 134.645C96.5414 136.733 90.9467 140.366 90.9467 140.366C90.9467 140.366 81.1959 138.188 81.0061 136.11Z" fill="#592624"/>
<path d="M69.2272 113.66C69.2972 106.193 65.0612 98.8461 58.5773 95.1929C55.9998 93.7377 52.8827 92.6036 51.6938 89.8838C51.6039 94.0789 53.612 98.274 56.9289 100.823C54.2614 100.542 51.7338 99.0769 50.1553 96.8991C49.8356 100.04 51.2043 103.312 53.672 105.279C55.8899 107.056 58.7571 107.738 61.4046 108.792C64.0421 109.836 66.7296 111.562 69.2272 113.66Z" fill="#F09199"/>
<path d="M80.057 112.074C78.6384 104.747 79.3277 97.3105 81.8154 93.3662C82.8045 91.8006 84.1132 90.516 84.1831 87.7861C85.0024 91.901 84.8125 96.1162 83.6636 98.8059C84.9125 98.3843 85.8715 96.8087 86.2312 94.5907C86.9705 97.6617 86.9106 100.934 86.0814 103.001C85.3321 104.868 84.0633 105.691 82.9643 106.865C81.8653 108.039 80.8763 109.886 80.057 112.074Z" fill="#F09199"/>
<path d="M183.22 124.04C179.54 125.88 175.62 127 170.34 127H145.46V122.76L150.1 122.44C150.34 120.68 150.58 116.68 150.58 106.28V97.08C150.58 85.56 150.34 81.56 150.02 79.56L145.46 79.24V75H173.94C185.7 75 189.46 78.28 189.46 86.28C189.46 92.12 186.26 95.96 180.02 98.2C187.78 98.92 192.02 102.04 192.02 110.36C192.02 116.76 189.22 120.92 183.22 124.04ZM162.58 89V97.72H170.1C174.82 97.72 177.3 95.4 177.3 89.72V88.36C177.3 81.88 174.02 79.96 166.98 79.96H162.82C162.66 81.56 162.58 85.24 162.58 89ZM163.06 120.68C165.14 121.24 168.34 121.72 171.38 121.72C173.78 121.72 175.46 121.32 176.74 120.44C178.82 119.08 179.62 117 179.62 112.92V111.56C179.62 106.04 176.34 103.16 169.46 103.16H162.58V105C162.58 113.48 162.74 118.36 163.06 120.68ZM233.238 127L222.438 128.2H222.038C220.918 127.56 219.638 125.72 218.998 123.4C216.678 125.8 214.358 127.48 208.518 127.48C200.678 127.48 197.158 124.52 197.158 118.44C197.158 114.44 198.358 112.12 201.638 110.12C205.158 107.88 210.998 106.28 218.038 106.04V103.64C218.038 98.52 216.038 97.16 211.398 97.16C207.318 97.16 204.118 98.44 200.838 100.52H200.678V94.68C205.078 92.52 210.358 91.24 215.718 91.24C225.478 91.24 229.238 94.36 229.238 102.44C229.238 106.04 228.998 113.4 228.998 117.32C228.998 121.88 230.038 122.92 233.238 123.48V127ZM208.358 116.6C208.358 119.88 210.038 121.56 213.798 121.56C216.438 121.56 217.798 120.2 217.878 117.8L218.038 111.72C216.438 111.24 214.838 111.08 213.478 111.08C209.638 111.08 208.358 112.28 208.358 115.96V116.6ZM256.202 123V127H237.082V123L240.522 122.68C240.762 121 240.842 118.04 240.842 112.12V107.4C240.842 101.4 240.762 98.2 240.522 96.68L236.922 96.2V92.68L251.162 90.92L251.322 91L251.082 97.32C255.162 93.48 257.802 91.32 264.202 91.32C273.562 91.32 277.642 94.84 277.642 106.52V115.4C277.642 117.72 277.722 121.56 277.802 122.44L281.082 123V127H262.122V123L265.722 122.6C266.122 121.16 266.362 117.72 266.362 112.68V106.12C266.362 99.64 263.802 98.2 258.362 98.2C254.122 98.2 252.122 100.44 252.122 104.84V113.08C252.122 118.44 252.282 121.24 252.442 122.6L256.202 123ZM319.134 145C314.974 148.04 309.134 149.8 301.374 149.8C288.414 149.8 284.734 147 284.734 142.84C284.734 138.68 287.614 135.96 293.854 132.84C293.214 131.88 292.814 130.36 292.814 128.52C292.814 125.08 293.614 123.8 298.094 121.08C288.734 118.76 285.294 115.32 285.294 107.4C285.294 100.04 287.294 95.96 295.054 92.92C298.174 91.72 301.614 91.08 304.894 91.08C310.574 91.08 314.654 92.36 317.214 94.84H326.014L326.174 95L325.694 100.2H320.094C320.334 101.32 320.494 102.52 320.494 103.8C320.494 111.88 317.694 114.2 313.614 116.6C310.574 118.44 306.654 119.88 302.654 120.84C301.614 121.72 301.214 122.6 301.214 123.32C301.214 124.36 301.614 124.68 304.654 124.76L312.734 125C321.134 125.24 324.894 127.88 324.894 134.36C324.894 139.16 323.054 142.12 319.134 145ZM305.054 115C306.254 115 307.134 114.68 307.854 114.12C309.134 113.08 309.614 111.8 309.614 105.56V103.88C309.614 98.36 307.294 95.8 302.494 95.8C301.454 95.8 300.494 96.04 299.694 96.36C297.214 97.4 296.494 99.56 296.494 104.84V106.04C296.494 111.16 297.774 112.44 301.054 113.96C302.734 114.76 304.014 115 305.054 115ZM293.374 139.24C293.374 142.12 297.934 144.52 306.734 144.52C310.254 144.52 312.254 143.72 313.534 142.68C314.574 141.88 315.134 140.84 315.134 139.16C315.134 135.72 312.974 134.44 302.974 134.44C300.574 134.44 298.654 134.52 297.294 134.6C294.574 135.72 293.374 137.4 293.374 139.24ZM371.844 127L359.764 127.72L359.364 127.64C358.484 126.6 357.604 124.68 357.124 122.28C353.444 125.32 348.964 127.48 343.604 127.48C335.044 127.48 332.004 123.56 332.004 115.72V96.52L328.484 95.96V92.12L343.044 91.48L343.204 91.64V113.72C343.204 118.52 346.244 120.28 350.884 120.28C352.804 120.28 354.324 119.8 355.124 119C356.004 118.12 356.244 117 356.244 113.96V91.8H367.684V116.92C367.684 122.12 368.564 122.92 371.844 123.32V127ZM394.554 123V127H375.754V123L379.194 122.68C379.434 121 379.514 118.04 379.514 112.12V107.32C379.514 101.16 379.354 97.96 379.114 96.68L375.514 96.28V92.6L389.354 90.92L389.514 91L390.074 96.6C394.234 93.08 397.194 91.32 402.794 91.32C407.834 91.32 411.034 92.68 413.994 96.84C418.154 93.16 420.794 91.32 426.714 91.32C435.914 91.32 439.274 95.08 439.274 106.28V115.96C439.274 118.28 439.354 121.72 439.434 122.6L442.634 123V127H423.834V123L427.434 122.6C427.754 121.8 427.994 119.48 427.994 114.28V107C427.994 99.88 425.754 98.2 420.874 98.2C418.554 98.2 416.794 98.92 415.354 100.2C415.194 101.96 415.034 104.6 415.034 107.56V113.4C415.034 118.52 415.194 121.24 415.354 122.68L418.874 123V127H399.914V123L403.434 122.68C403.674 121.24 403.754 118.52 403.754 112.92V106.36C403.754 99.96 401.914 98.2 396.714 98.2C394.474 98.2 392.714 98.92 391.114 100.2C390.954 101.88 390.794 104.52 390.794 107.56V113.16C390.794 118.52 390.954 121.24 391.114 122.68L394.554 123ZM455.004 85.56C451.804 85.56 449.804 82.28 449.804 80.28C449.804 77.64 454.764 75.16 457.724 75.16C460.764 75.16 461.724 78.6 461.724 80.6C461.724 83.72 458.044 85.56 455.004 85.56ZM447.164 127V123L450.924 122.68C451.164 121.08 451.244 118.68 451.244 112.36V106.6C451.244 100.04 451.084 97.4 450.844 95.88L446.924 95.64V91.8L462.684 91.32L462.844 91.4C462.604 95.64 462.524 99.8 462.524 107.32V112.12C462.524 118.84 462.684 121.16 462.844 122.68L466.684 123V127H447.164ZM508.878 122.76V127H486.398V122.76L491.038 122.44C491.358 120.76 491.518 116.84 491.518 106.84V97.08C491.518 85.56 491.278 81.56 490.958 79.56L486.398 79.24V75H515.358C526.158 75 531.358 79.08 531.358 88.04C531.358 96.44 527.118 100.04 519.998 101.8C523.518 103.08 525.518 106.12 528.637 112.76L531.278 118.36C532.878 121.72 533.758 122.12 536.238 122.36V127H523.118C521.838 126.6 520.798 124.92 519.358 121.64L516.158 114.36C512.478 106.04 510.798 104.68 506.718 104.68C505.518 104.68 504.318 104.76 503.438 104.76V108.36C503.438 117.64 503.678 121 503.997 122.44L508.878 122.76ZM503.438 93.8V99.64C505.918 99.8 508.158 99.88 509.918 99.88C516.238 99.88 518.958 97.24 518.958 90.44V89.24C518.958 82.52 515.758 79.8 505.758 79.8H503.838C503.678 81.64 503.438 85.16 503.438 93.8ZM572.551 123.24C569.191 125.72 564.311 127.72 558.311 127.72C551.831 127.72 547.351 126.36 544.231 123.24C541.111 120.12 539.991 116.2 539.991 110.6C539.991 100.84 543.591 97.32 550.391 93.64C553.591 91.88 556.391 91.08 560.711 91.08C569.911 91.08 574.391 95.56 574.391 102.68C574.391 104.6 574.231 106.6 573.991 108.04L565.671 111.88L551.351 111.72C552.071 118.92 556.071 121.32 564.391 121.32C567.431 121.32 570.551 120.68 573.271 119.56L573.511 119.72L572.551 123.24ZM553.351 97.48C551.671 98.44 551.191 100.44 551.191 105.32V107L563.671 106.76C563.751 106.12 563.831 104.92 563.831 103.88C563.831 99 561.511 96.68 556.791 96.68C555.191 96.68 554.311 96.92 553.351 97.48ZM598.077 123V127H578.957V123L582.397 122.68C582.637 121 582.717 118.04 582.717 112.12V107.4C582.717 101.4 582.637 98.2 582.397 96.68L578.797 96.2V92.68L593.037 90.92L593.197 91L592.957 97.32C597.037 93.48 599.677 91.32 606.077 91.32C615.437 91.32 619.517 94.84 619.517 106.52V115.4C619.517 117.72 619.597 121.56 619.677 122.44L622.957 123V127H603.997V123L607.597 122.6C607.997 121.16 608.237 117.72 608.237 112.68V106.12C608.237 99.64 605.677 98.2 600.237 98.2C595.997 98.2 593.997 100.44 593.997 104.84V113.08C593.997 118.44 594.157 121.24 594.317 122.6L598.077 123ZM662.769 127L651.969 128.2H651.569C650.449 127.56 649.169 125.72 648.529 123.4C646.209 125.8 643.889 127.48 638.049 127.48C630.209 127.48 626.689 124.52 626.689 118.44C626.689 114.44 627.889 112.12 631.169 110.12C634.689 107.88 640.529 106.28 647.569 106.04V103.64C647.569 98.52 645.569 97.16 640.929 97.16C636.849 97.16 633.649 98.44 630.369 100.52H630.209V94.68C634.609 92.52 639.889 91.24 645.249 91.24C655.009 91.24 658.769 94.36 658.769 102.44C658.769 106.04 658.529 113.4 658.529 117.32C658.529 121.88 659.569 122.92 662.769 123.48V127ZM637.889 116.6C637.889 119.88 639.569 121.56 643.329 121.56C645.969 121.56 647.329 120.2 647.409 117.8L647.569 111.72C645.969 111.24 644.369 111.08 643.009 111.08C639.169 111.08 637.889 112.28 637.889 115.96V116.6ZM685.413 123V127H666.613V123L670.053 122.68C670.293 121 670.373 118.04 670.373 112.12V107.32C670.373 101.16 670.213 97.96 669.973 96.68L666.373 96.28V92.6L680.213 90.92L680.373 91L680.933 96.6C685.093 93.08 688.053 91.32 693.653 91.32C698.693 91.32 701.893 92.68 704.853 96.84C709.013 93.16 711.653 91.32 717.573 91.32C726.773 91.32 730.133 95.08 730.133 106.28V115.96C730.133 118.28 730.213 121.72 730.293 122.6L733.493 123V127H714.693V123L718.293 122.6C718.613 121.8 718.853 119.48 718.853 114.28V107C718.853 99.88 716.613 98.2 711.733 98.2C709.413 98.2 707.653 98.92 706.213 100.2C706.053 101.96 705.893 104.6 705.893 107.56V113.4C705.893 118.52 706.053 121.24 706.213 122.68L709.733 123V127H690.773V123L694.293 122.68C694.533 121.24 694.613 118.52 694.613 112.92V106.36C694.613 99.96 692.773 98.2 687.573 98.2C685.333 98.2 683.573 98.92 681.973 100.2C681.813 101.88 681.653 104.52 681.653 107.56V113.16C681.653 118.52 681.813 121.24 681.973 122.68L685.413 123ZM771.223 123.24C767.863 125.72 762.983 127.72 756.983 127.72C750.503 127.72 746.023 126.36 742.903 123.24C739.783 120.12 738.663 116.2 738.663 110.6C738.663 100.84 742.263 97.32 749.063 93.64C752.263 91.88 755.063 91.08 759.383 91.08C768.583 91.08 773.063 95.56 773.063 102.68C773.063 104.6 772.903 106.6 772.663 108.04L764.343 111.88L750.023 111.72C750.743 118.92 754.743 121.32 763.063 121.32C766.103 121.32 769.223 120.68 771.943 119.56L772.183 119.72L771.223 123.24ZM752.023 97.48C750.343 98.44 749.863 100.44 749.863 105.32V107L762.343 106.76C762.423 106.12 762.503 104.92 762.503 103.88C762.503 99 760.183 96.68 755.463 96.68C753.863 96.68 752.983 96.92 752.023 97.48ZM798.509 122.84V127H777.629V123L781.069 122.68C781.309 121 781.389 118.04 781.389 112.12V107.4C781.389 101.4 781.229 98.2 780.989 96.68L777.469 96.2V92.68L791.549 90.84L791.709 90.92V100.36C795.229 93.48 796.589 91.48 802.029 91.48C803.389 91.48 804.829 91.64 805.629 91.8L805.709 92.04L805.469 100.2L805.309 100.36C804.909 100.6 804.349 100.76 803.229 100.76C801.389 100.76 799.789 100.6 798.189 100.6C796.749 100.6 795.789 101.08 794.909 101.96C793.629 103.24 792.669 105.16 792.669 109V114.28C792.669 118.36 792.909 121.56 793.149 122.52L798.509 122.84Z" fill="url(#paint0_linear_5_5)"/>
<defs>
<linearGradient id="paint0_linear_5_5" x1="475" y1="50" x2="475" y2="150" gradientUnits="userSpaceOnUse">
<stop stop-color="#F09199"/>
<stop offset="1" stop-color="#EC8890"/>
</linearGradient>
</defs>
</svg>
